<svg xmlns="http://www.w3.org/2000/svg" xmlns:xlink="http://www.w3.org/1999/xlink" width="500" zoomAndPan="magnify" viewBox="0 0 375 225" height="300" preserveAspectRatio="xMidYMid meet" version="1.0"><defs><g/><clipPath id="3c2166eece"><path d="M 5 68 L 99 68 L 99 162 L 5 162 Z M 5 68 " clip-rule="nonzero"/></clipPath><clipPath id="38c6177fa9"><path d="M 51.765625 63.28125 L 103.207031 114.722656 L 51.765625 166.164062 L 0.324219 114.722656 Z M 51.765625 63.28125 " clip-rule="nonzero"/></clipPath><clipPath id="3b7e2aae0d"><path d="M 51.765625 63.28125 L 103.558594 115.074219 L 51.765625 166.867188 L -0.0273438 115.074219 Z M 51.765625 63.28125 " clip-rule="nonzero"/></clipPath><clipPath id="fe13c69100"><path d="M 60.4375 71.949219 L 94.503906 106.019531 C 96.804688 108.320312 98.097656 111.4375 98.097656 114.6875 C 98.097656 117.941406 96.804688 121.058594 94.503906 123.359375 L 60.4375 157.429688 C 58.136719 159.726562 55.019531 161.019531 51.765625 161.019531 C 48.515625 161.019531 45.394531 159.726562 43.097656 157.429688 L 9.027344 123.359375 C 6.726562 121.058594 5.4375 117.941406 5.4375 114.6875 C 5.4375 111.4375 6.726562 108.320312 9.027344 106.019531 L 43.097656 71.949219 C 45.394531 69.652344 48.515625 68.359375 51.765625 68.359375 C 55.019531 68.359375 58.136719 69.652344 60.4375 71.949219 Z M 60.4375 71.949219 " clip-rule="nonzero"/></clipPath><clipPath id="e4bccfef0c"><path d="M 14.113281 77.265625 L 89.113281 77.265625 L 89.113281 152.265625 L 14.113281 152.265625 Z M 14.113281 77.265625 " clip-rule="nonzero"/></clipPath></defs><g clip-path="url(#3c2166eece)"><g clip-path="url(#38c6177fa9)"><g clip-path="url(#3b7e2aae0d)"><g clip-path="url(#fe13c69100)"><path stroke-linecap="butt" transform="matrix(0.53033, 0.53033, -0.53033, 0.53033, 51.766615, 63.280503)" fill="none" stroke-linejoin="miter" d="M 16.347933 -0.00204436 L 80.58785 0.00163849 C 84.926245 0.00163849 89.08418 1.721528 92.14831 4.785658 C 95.216122 7.85347 96.936012 12.011406 96.936012 16.349801 L 96.939695 80.589717 C 96.936012 84.92443 95.216122 89.082365 92.14831 92.150177 C 89.08418 95.214307 84.922562 96.93788 80.591533 96.93788 L 16.347933 96.93788 C 12.009538 96.93788 7.855286 95.214307 4.787473 92.146494 C 1.723344 89.082365 -0.000229109 84.928112 -0.000229109 80.589717 L -0.000229109 16.346118 C -0.000229109 12.015089 1.723344 7.85347 4.787473 4.789341 C 7.855286 1.721528 12.013221 0.00163849 16.347933 -0.00204436 Z M 16.347933 -0.00204436 " stroke="#e1bf5e" stroke-width="6" stroke-opacity="1" stroke-miterlimit="4"/></g></g></g></g><path fill="#ffffff" d="M 52.238281 145.976562 C 53.671875 145.90625 55.085938 145.351562 56.203125 144.308594 C 55.113281 145.324219 53.691406 145.878906 52.238281 145.976562 " fill-opacity="1" fill-rule="evenodd"/><path fill="#ffffff" d="M 51.285156 83.410156 C 49.851562 83.480469 48.4375 84.035156 47.320312 85.078125 C 48.410156 84.066406 49.832031 83.507812 51.285156 83.410156 " fill-opacity="1" fill-rule="evenodd"/><g clip-path="url(#e4bccfef0c)"><path fill="#ffffff" d="M 77.035156 121.050781 C 75.425781 121.050781 73.8125 120.441406 72.59375 119.222656 L 68.066406 114.695312 L 72.59375 110.164062 C 73.8125 108.945312 75.425781 108.335938 77.035156 108.335938 C 78.246094 108.335938 79.457031 108.679688 80.5 109.367188 L 81.476562 110.34375 C 82.671875 111.539062 83.28125 113.113281 83.300781 114.695312 C 83.28125 116.277344 82.671875 117.847656 81.476562 119.042969 L 80.503906 120.015625 C 79.457031 120.707031 78.246094 121.050781 77.035156 121.050781 Z M 89.414062 114.605469 C 89.414062 111.433594 88.207031 108.253906 85.796875 105.84375 C 85.371094 105.417969 84.921875 105.035156 84.457031 104.683594 L 65.945312 86.171875 C 65.585938 85.8125 64.984375 86.144531 65.09375 86.640625 C 65.3125 87.625 65.425781 88.640625 65.425781 89.671875 C 65.425781 90.695312 65.3125 91.707031 65.09375 92.691406 C 64.949219 93.34375 65.152344 94.019531 65.625 94.492188 L 73.789062 102.65625 C 71.765625 103.199219 69.855469 104.261719 68.277344 105.84375 L 63.746094 110.375 L 57.105469 103.734375 L 52.785156 108.054688 L 59.425781 114.695312 L 51.761719 122.359375 L 47.441406 126.675781 L 46.417969 127.703125 L 43.164062 130.957031 C 41.890625 132.230469 40.953125 133.714844 40.351562 135.300781 L 39.875 136.871094 C 39.65625 137.804688 39.546875 138.761719 39.546875 139.71875 C 39.546875 142.890625 40.75 146.066406 43.164062 148.476562 C 45.53125 150.847656 48.644531 152.054688 51.761719 152.09375 L 51.769531 152.09375 C 54.886719 152.050781 57.992188 150.84375 60.363281 148.476562 C 62.773438 146.066406 63.976562 142.890625 63.976562 139.71875 C 63.976562 138.761719 63.867188 137.804688 63.648438 136.871094 C 63.527344 136.339844 63.367188 135.816406 63.171875 135.300781 C 62.570312 133.714844 61.632812 132.230469 60.363281 130.957031 L 57.105469 127.703125 L 52.785156 132.023438 L 56.039062 135.277344 C 57.261719 136.496094 57.871094 138.105469 57.871094 139.71875 C 57.871094 140.039062 57.84375 140.359375 57.796875 140.675781 C 57.601562 141.953125 57.015625 143.179688 56.039062 144.15625 C 54.863281 145.332031 53.320312 145.941406 51.765625 145.984375 L 51.761719 145.984375 C 51.707031 145.984375 51.65625 145.984375 51.601562 145.984375 C 49.992188 145.984375 48.378906 145.375 47.160156 144.15625 C 46.457031 143.050781 45.9375 141.898438 45.726562 140.675781 C 45.679688 140.359375 45.652344 140.039062 45.652344 139.71875 C 45.652344 138.105469 46.265625 136.496094 47.484375 135.277344 L 50.738281 132.023438 L 51.761719 130.996094 L 57.105469 125.652344 L 63.746094 119.015625 L 68.277344 123.542969 C 69.855469 125.125 71.765625 126.1875 73.789062 126.730469 L 65.625 134.894531 C 65.15625 135.367188 64.953125 136.046875 65.09375 136.695312 C 65.3125 137.679688 65.425781 138.691406 65.425781 139.71875 C 65.425781 140.746094 65.3125 141.761719 65.09375 142.746094 C 64.984375 143.242188 65.585938 143.574219 65.945312 143.214844 L 84.460938 124.699219 C 84.925781 124.351562 85.375 123.964844 85.796875 123.542969 C 88.207031 121.132812 89.414062 117.957031 89.414062 114.785156 C 89.414062 114.753906 89.414062 114.726562 89.410156 114.695312 C 89.414062 114.667969 89.414062 114.632812 89.414062 114.605469 Z M 23.023438 120.019531 L 22.046875 119.042969 C 20.851562 117.847656 20.242188 116.273438 20.222656 114.691406 C 20.242188 113.113281 20.851562 111.539062 22.046875 110.34375 L 23.019531 109.371094 C 24.066406 108.679688 25.277344 108.335938 26.488281 108.335938 C 28.097656 108.335938 29.707031 108.945312 30.929688 110.164062 L 35.457031 114.695312 L 30.929688 119.222656 C 29.707031 120.441406 28.097656 121.050781 26.488281 121.050781 C 25.277344 121.050781 24.066406 120.707031 23.023438 120.019531 Z M 37.898438 134.894531 L 29.734375 126.730469 C 31.757812 126.1875 33.667969 125.125 35.246094 123.542969 L 39.777344 119.015625 L 46.417969 125.652344 L 50.738281 121.332031 L 44.097656 114.691406 L 50.738281 108.054688 L 57.105469 101.6875 L 60.359375 98.429688 C 61.632812 97.160156 62.570312 95.671875 63.171875 94.085938 L 63.648438 92.515625 C 63.867188 91.582031 63.976562 90.625 63.976562 89.671875 C 63.976562 86.496094 62.773438 83.324219 60.359375 80.910156 C 57.992188 78.539062 54.878906 77.335938 51.761719 77.292969 L 51.753906 77.292969 C 48.636719 77.335938 45.53125 78.542969 43.160156 80.910156 C 40.75 83.324219 39.546875 86.496094 39.546875 89.671875 C 39.546875 90.625 39.65625 91.582031 39.875 92.515625 C 39.996094 93.046875 40.15625 93.570312 40.351562 94.085938 C 40.953125 95.671875 41.890625 97.160156 43.160156 98.429688 L 46.417969 101.6875 L 50.738281 97.363281 L 47.480469 94.109375 C 46.265625 92.890625 45.652344 91.28125 45.652344 89.671875 C 45.652344 89.351562 45.679688 89.027344 45.726562 88.710938 C 45.921875 87.433594 46.507812 86.207031 47.484375 85.230469 C 48.660156 84.054688 50.203125 83.445312 51.757812 83.40625 L 51.761719 83.40625 C 51.816406 83.402344 51.867188 83.402344 51.921875 83.402344 C 53.535156 83.402344 55.144531 84.011719 56.363281 85.230469 C 57.066406 86.339844 57.585938 87.488281 57.796875 88.710938 C 57.84375 89.027344 57.871094 89.351562 57.871094 89.671875 C 57.871094 91.28125 57.261719 92.890625 56.039062 94.109375 L 52.785156 97.363281 L 51.761719 98.390625 L 39.777344 110.375 L 35.25 105.84375 C 33.667969 104.261719 31.757812 103.199219 29.734375 102.65625 L 37.898438 94.492188 C 38.371094 94.019531 38.574219 93.34375 38.425781 92.691406 C 38.210938 91.707031 38.097656 90.695312 38.097656 89.671875 C 38.097656 88.640625 38.210938 87.625 38.429688 86.640625 C 38.539062 86.144531 37.9375 85.8125 37.578125 86.171875 L 19.0625 104.6875 C 18.597656 105.035156 18.152344 105.421875 17.726562 105.84375 C 15.316406 108.253906 14.109375 111.433594 14.109375 114.605469 C 14.109375 114.632812 14.109375 114.660156 14.113281 114.691406 C 14.109375 114.722656 14.109375 114.753906 14.109375 114.785156 C 14.109375 117.957031 15.316406 121.132812 17.726562 123.542969 C 18.152344 123.96875 18.601562 124.355469 19.066406 124.703125 L 37.578125 143.214844 C 37.9375 143.574219 38.539062 143.242188 38.429688 142.746094 C 38.210938 141.761719 38.097656 140.746094 38.097656 139.71875 C 38.097656 138.691406 38.210938 137.679688 38.429688 136.695312 C 38.574219 136.046875 38.371094 135.367188 37.898438 134.894531 " fill-opacity="1" fill-rule="evenodd"/></g><g fill="#ffffff" fill-opacity="1"><g transform="translate(109.727644, 116.146365)"><g><path d="M 19.59375 -15.6875 C 19.59375 -14.363281 19.164062 -13.222656 18.3125 -12.265625 C 17.46875 -11.304688 16.316406 -10.648438 14.859375 -10.296875 L 19.125 -3.3125 C 19.675781 -2.40625 20.1875 -1.722656 20.65625 -1.265625 C 21.132812 -0.816406 21.613281 -0.582031 22.09375 -0.5625 L 22.09375 0 L 15.6875 0 L 9.65625 -9.875 L 8.6875 -9.875 L 8.6875 -3.28125 C 8.6875 -2.457031 8.796875 -1.859375 9.015625 -1.484375 C 9.234375 -1.109375 9.550781 -0.863281 9.96875 -0.75 C 10.394531 -0.644531 11.03125 -0.582031 11.875 -0.5625 L 11.875 0 L 0.59375 0 L 0.59375 -0.5625 C 1.394531 -0.582031 2 -0.648438 2.40625 -0.765625 C 2.820312 -0.890625 3.128906 -1.144531 3.328125 -1.53125 C 3.523438 -1.914062 3.625 -2.5 3.625 -3.28125 L 3.625 -18.6875 C 3.625 -19.632812 3.382812 -20.273438 2.90625 -20.609375 C 2.4375 -20.941406 1.664062 -21.109375 0.59375 -21.109375 L 0.59375 -21.6875 L 11.734375 -21.6875 C 14.078125 -21.6875 15.972656 -21.160156 17.421875 -20.109375 C 18.867188 -19.054688 19.59375 -17.582031 19.59375 -15.6875 Z M 10.390625 -11.046875 C 11.441406 -11.046875 12.382812 -11.375 13.21875 -12.03125 C 14.0625 -12.695312 14.484375 -13.945312 14.484375 -15.78125 C 14.484375 -18.9375 12.957031 -20.515625 9.90625 -20.515625 L 8.6875 -20.515625 L 8.6875 -11.046875 Z M 10.390625 -11.046875 "/></g></g></g><g fill="#ffffff" fill-opacity="1"><g transform="translate(132.415058, 116.146365)"><g><path d="M 12.9375 -22.15625 C 15.0625 -22.15625 17.019531 -21.703125 18.8125 -20.796875 C 20.601562 -19.890625 22.023438 -18.570312 23.078125 -16.84375 C 24.128906 -15.125 24.65625 -13.097656 24.65625 -10.765625 C 24.65625 -8.679688 24.179688 -6.785156 23.234375 -5.078125 C 22.285156 -3.378906 20.925781 -2.035156 19.15625 -1.046875 C 17.382812 -0.0546875 15.320312 0.4375 12.96875 0.4375 C 10.695312 0.4375 8.675781 -0.0390625 6.90625 -1 C 5.144531 -1.957031 3.769531 -3.285156 2.78125 -4.984375 C 1.789062 -6.691406 1.296875 -8.648438 1.296875 -10.859375 C 1.296875 -13.023438 1.796875 -14.960938 2.796875 -16.671875 C 3.796875 -18.390625 5.175781 -19.734375 6.9375 -20.703125 C 8.707031 -21.671875 10.707031 -22.15625 12.9375 -22.15625 Z M 6.90625 -10.921875 C 6.90625 -9.234375 7.109375 -7.609375 7.515625 -6.046875 C 7.929688 -4.492188 8.585938 -3.207031 9.484375 -2.1875 C 10.378906 -1.164062 11.53125 -0.65625 12.9375 -0.65625 C 14.15625 -0.65625 15.222656 -1.0625 16.140625 -1.875 C 17.054688 -2.6875 17.765625 -3.84375 18.265625 -5.34375 C 18.773438 -6.851562 19.03125 -8.617188 19.03125 -10.640625 C 19.03125 -12.828125 18.78125 -14.703125 18.28125 -16.265625 C 17.789062 -17.835938 17.085938 -19.023438 16.171875 -19.828125 C 15.253906 -20.640625 14.1875 -21.046875 12.96875 -21.046875 C 11.851562 -21.046875 10.835938 -20.671875 9.921875 -19.921875 C 9.003906 -19.179688 8.269531 -18.046875 7.71875 -16.515625 C 7.175781 -14.992188 6.90625 -13.128906 6.90625 -10.921875 Z M 6.90625 -10.921875 "/></g></g></g><g fill="#ffffff" fill-opacity="1"><g transform="translate(158.384104, 116.146365)"><g><path d="M 10.515625 -21.109375 C 9.734375 -21.109375 9.191406 -21.035156 8.890625 -20.890625 C 8.597656 -20.742188 8.453125 -20.503906 8.453125 -20.171875 C 8.453125 -19.878906 8.59375 -19.457031 8.875 -18.90625 L 13.609375 -10.0625 L 17.609375 -17.734375 C 18.054688 -18.597656 18.28125 -19.265625 18.28125 -19.734375 C 18.28125 -20.253906 18.054688 -20.613281 17.609375 -20.8125 C 17.171875 -21.007812 16.570312 -21.109375 15.8125 -21.109375 L 15.8125 -21.6875 L 22.25 -21.6875 L 22.25 -21.109375 C 21.851562 -21.109375 21.5 -21.03125 21.1875 -20.875 C 20.882812 -20.71875 20.554688 -20.398438 20.203125 -19.921875 C 19.859375 -19.453125 19.4375 -18.742188 18.9375 -17.796875 L 14.296875 -8.9375 L 14.296875 -3.25 C 14.296875 -2.40625 14.390625 -1.804688 14.578125 -1.453125 C 14.765625 -1.097656 15.066406 -0.863281 15.484375 -0.75 C 15.910156 -0.644531 16.628906 -0.582031 17.640625 -0.5625 L 17.640625 0 L 5.90625 0 L 5.90625 -0.5625 C 6.8125 -0.582031 7.492188 -0.664062 7.953125 -0.8125 C 8.410156 -0.96875 8.738281 -1.226562 8.9375 -1.59375 C 9.144531 -1.957031 9.25 -2.519531 9.25 -3.28125 L 9.25 -8.046875 L 3.71875 -18.25 C 3.28125 -19.0625 2.914062 -19.65625 2.625 -20.03125 C 2.34375 -20.414062 2.039062 -20.691406 1.71875 -20.859375 C 1.394531 -21.023438 0.96875 -21.109375 0.4375 -21.109375 L 0.4375 -21.6875 L 10.515625 -21.6875 Z M 10.515625 -21.109375 "/></g></g></g><g fill="#ffffff" fill-opacity="1"><g transform="translate(181.071518, 116.146365)"><g><path d="M 4.015625 -4.328125 L 11.328125 -22.03125 L 11.640625 -22.03125 L 18.9375 -4.265625 C 19.414062 -3.066406 19.890625 -2.148438 20.359375 -1.515625 C 20.835938 -0.878906 21.457031 -0.5625 22.21875 -0.5625 L 22.21875 0 L 12.09375 0 L 12.09375 -0.5625 C 13.101562 -0.582031 13.773438 -0.660156 14.109375 -0.796875 C 14.441406 -0.941406 14.609375 -1.253906 14.609375 -1.734375 C 14.609375 -1.878906 14.570312 -2.046875 14.5 -2.234375 C 14.425781 -2.429688 14.367188 -2.59375 14.328125 -2.71875 L 12.96875 -6.125 L 6.03125 -6.125 L 5.046875 -3.75 C 4.753906 -3.164062 4.609375 -2.648438 4.609375 -2.203125 C 4.609375 -1.554688 4.847656 -1.117188 5.328125 -0.890625 C 5.816406 -0.671875 6.503906 -0.5625 7.390625 -0.5625 L 7.390625 0 L 0.4375 0 L 0.4375 -0.5625 C 1.15625 -0.625 1.796875 -0.953125 2.359375 -1.546875 C 2.929688 -2.140625 3.484375 -3.066406 4.015625 -4.328125 Z M 12.5 -7.296875 L 9.5 -14.546875 L 6.5 -7.296875 Z M 12.5 -7.296875 "/></g></g></g><g fill="#ffffff" fill-opacity="1"><g transform="translate(203.758931, 116.146365)"><g><path d="M 12.75 -21.109375 C 11.675781 -21.085938 10.894531 -21.03125 10.40625 -20.9375 C 9.925781 -20.84375 9.566406 -20.601562 9.328125 -20.21875 C 9.085938 -19.84375 8.96875 -19.226562 8.96875 -18.375 L 8.96875 -2.90625 C 8.96875 -2.289062 9.117188 -1.847656 9.421875 -1.578125 C 9.722656 -1.304688 10.210938 -1.171875 10.890625 -1.171875 L 13.1875 -1.171875 C 14.957031 -1.171875 16.363281 -1.675781 17.40625 -2.6875 C 18.445312 -3.695312 19.222656 -5.265625 19.734375 -7.390625 L 20.296875 -7.390625 L 19.53125 0 L 0.5 0 L 0.5 -0.5625 C 1.425781 -0.582031 2.117188 -0.660156 2.578125 -0.796875 C 3.046875 -0.941406 3.382812 -1.203125 3.59375 -1.578125 C 3.800781 -1.953125 3.90625 -2.53125 3.90625 -3.3125 L 3.90625 -18.375 C 3.90625 -19.226562 3.785156 -19.84375 3.546875 -20.21875 C 3.304688 -20.601562 2.96875 -20.84375 2.53125 -20.9375 C 2.101562 -21.03125 1.425781 -21.085938 0.5 -21.109375 L 0.5 -21.6875 L 12.75 -21.6875 Z M 12.75 -21.109375 "/></g></g></g><g fill="#ffffff" fill-opacity="1"><g transform="translate(224.805529, 116.146365)"><g/></g></g><g fill="#ffffff" fill-opacity="1"><g transform="translate(232.694053, 116.146365)"><g><path d="M 12.8125 -22.15625 C 13.90625 -22.15625 14.84375 -22.054688 15.625 -21.859375 C 16.40625 -21.660156 17.191406 -21.390625 17.984375 -21.046875 C 18.597656 -20.796875 19.03125 -20.671875 19.28125 -20.671875 C 19.6875 -20.671875 19.988281 -20.785156 20.1875 -21.015625 C 20.382812 -21.253906 20.566406 -21.613281 20.734375 -22.09375 L 21.375 -22.09375 L 21.375 -14.734375 L 20.734375 -14.734375 C 20.066406 -16.691406 19.066406 -18.210938 17.734375 -19.296875 C 16.410156 -20.378906 14.925781 -20.921875 13.28125 -20.921875 C 11.3125 -20.921875 9.769531 -19.984375 8.65625 -18.109375 C 7.550781 -16.242188 7 -13.671875 7 -10.390625 C 7 -6.367188 7.769531 -3.660156 9.3125 -2.265625 C 9.894531 -1.722656 10.539062 -1.316406 11.25 -1.046875 C 11.957031 -0.785156 12.632812 -0.65625 13.28125 -0.65625 C 14.269531 -0.65625 15.28125 -0.890625 16.3125 -1.359375 L 16.3125 -6.65625 C 16.3125 -7.957031 15.484375 -8.609375 13.828125 -8.609375 L 13.609375 -8.609375 L 13.609375 -9.1875 L 23.890625 -9.1875 L 23.890625 -8.609375 C 22.210938 -8.609375 21.375 -7.96875 21.375 -6.6875 L 21.375 -1.359375 C 20.320312 -0.785156 19.0625 -0.34375 17.59375 -0.03125 C 16.132812 0.28125 14.65625 0.4375 13.15625 0.4375 C 10.738281 0.4375 8.640625 -0.0351562 6.859375 -0.984375 C 5.085938 -1.929688 3.734375 -3.222656 2.796875 -4.859375 C 1.859375 -6.503906 1.390625 -8.335938 1.390625 -10.359375 C 1.390625 -12.484375 1.898438 -14.445312 2.921875 -16.25 C 3.941406 -18.0625 5.320312 -19.5 7.0625 -20.5625 C 8.8125 -21.625 10.726562 -22.15625 12.8125 -22.15625 Z M 12.8125 -22.15625 "/></g></g></g><g fill="#ffffff" fill-opacity="1"><g transform="translate(257.022282, 116.146365)"><g><path d="M 19.59375 -15.6875 C 19.59375 -14.363281 19.164062 -13.222656 18.3125 -12.265625 C 17.46875 -11.304688 16.316406 -10.648438 14.859375 -10.296875 L 19.125 -3.3125 C 19.675781 -2.40625 20.1875 -1.722656 20.65625 -1.265625 C 21.132812 -0.816406 21.613281 -0.582031 22.09375 -0.5625 L 22.09375 0 L 15.6875 0 L 9.65625 -9.875 L 8.6875 -9.875 L 8.6875 -3.28125 C 8.6875 -2.457031 8.796875 -1.859375 9.015625 -1.484375 C 9.234375 -1.109375 9.550781 -0.863281 9.96875 -0.75 C 10.394531 -0.644531 11.03125 -0.582031 11.875 -0.5625 L 11.875 0 L 0.59375 0 L 0.59375 -0.5625 C 1.394531 -0.582031 2 -0.648438 2.40625 -0.765625 C 2.820312 -0.890625 3.128906 -1.144531 3.328125 -1.53125 C 3.523438 -1.914062 3.625 -2.5 3.625 -3.28125 L 3.625 -18.6875 C 3.625 -19.632812 3.382812 -20.273438 2.90625 -20.609375 C 2.4375 -20.941406 1.664062 -21.109375 0.59375 -21.109375 L 0.59375 -21.6875 L 11.734375 -21.6875 C 14.078125 -21.6875 15.972656 -21.160156 17.421875 -20.109375 C 18.867188 -19.054688 19.59375 -17.582031 19.59375 -15.6875 Z M 10.390625 -11.046875 C 11.441406 -11.046875 12.382812 -11.375 13.21875 -12.03125 C 14.0625 -12.695312 14.484375 -13.945312 14.484375 -15.78125 C 14.484375 -18.9375 12.957031 -20.515625 9.90625 -20.515625 L 8.6875 -20.515625 L 8.6875 -11.046875 Z M 10.390625 -11.046875 "/></g></g></g><g fill="#ffffff" fill-opacity="1"><g transform="translate(279.709696, 116.146365)"><g><path d="M 4.015625 -4.328125 L 11.328125 -22.03125 L 11.640625 -22.03125 L 18.9375 -4.265625 C 19.414062 -3.066406 19.890625 -2.148438 20.359375 -1.515625 C 20.835938 -0.878906 21.457031 -0.5625 22.21875 -0.5625 L 22.21875 0 L 12.09375 0 L 12.09375 -0.5625 C 13.101562 -0.582031 13.773438 -0.660156 14.109375 -0.796875 C 14.441406 -0.941406 14.609375 -1.253906 14.609375 -1.734375 C 14.609375 -1.878906 14.570312 -2.046875 14.5 -2.234375 C 14.425781 -2.429688 14.367188 -2.59375 14.328125 -2.71875 L 12.96875 -6.125 L 6.03125 -6.125 L 5.046875 -3.75 C 4.753906 -3.164062 4.609375 -2.648438 4.609375 -2.203125 C 4.609375 -1.554688 4.847656 -1.117188 5.328125 -0.890625 C 5.816406 -0.671875 6.503906 -0.5625 7.390625 -0.5625 L 7.390625 0 L 0.4375 0 L 0.4375 -0.5625 C 1.15625 -0.625 1.796875 -0.953125 2.359375 -1.546875 C 2.929688 -2.140625 3.484375 -3.066406 4.015625 -4.328125 Z M 12.5 -7.296875 L 9.5 -14.546875 L 6.5 -7.296875 Z M 12.5 -7.296875 "/></g></g></g><g fill="#ffffff" fill-opacity="1"><g transform="translate(302.39711, 116.146365)"><g><path d="M 20.078125 -7.609375 L 20.078125 -18.375 C 20.078125 -19.363281 19.816406 -20.066406 19.296875 -20.484375 C 18.785156 -20.898438 17.960938 -21.109375 16.828125 -21.109375 L 16.828125 -21.6875 L 23.890625 -21.6875 L 23.890625 -21.109375 C 22.960938 -21.109375 22.273438 -20.851562 21.828125 -20.34375 C 21.390625 -19.84375 21.171875 -19.1875 21.171875 -18.375 L 21.171875 0.3125 L 20.640625 0.3125 L 4.640625 -17.734375 L 4.640625 -3.1875 C 4.640625 -2.195312 4.898438 -1.507812 5.421875 -1.125 C 5.953125 -0.75 6.765625 -0.5625 7.859375 -0.5625 L 8.078125 -0.5625 L 8.078125 0 L 0.46875 0 L 0.46875 -0.5625 C 2.507812 -0.5625 3.53125 -1.40625 3.53125 -3.09375 L 3.53125 -19 C 3.40625 -19.125 3.144531 -19.398438 2.75 -19.828125 C 2.363281 -20.265625 1.992188 -20.582031 1.640625 -20.78125 C 1.285156 -20.976562 0.894531 -21.085938 0.46875 -21.109375 L 0.46875 -21.6875 L 7.671875 -21.6875 Z M 20.078125 -7.609375 "/></g></g></g><g fill="#ffffff" fill-opacity="1"><g transform="translate(326.725339, 116.146365)"><g><path d="M 23.234375 -10.703125 C 23.234375 -8.472656 22.753906 -6.546875 21.796875 -4.921875 C 20.835938 -3.304688 19.53125 -2.082031 17.875 -1.25 C 16.226562 -0.414062 14.394531 0 12.375 0 L 0.53125 0 L 0.53125 -0.5625 C 1.3125 -0.5625 1.898438 -0.617188 2.296875 -0.734375 C 2.703125 -0.859375 3.003906 -1.109375 3.203125 -1.484375 C 3.398438 -1.859375 3.5 -2.457031 3.5 -3.28125 L 3.5 -18.375 C 3.5 -19.1875 3.394531 -19.785156 3.1875 -20.171875 C 2.976562 -20.566406 2.671875 -20.820312 2.265625 -20.9375 C 1.867188 -21.050781 1.289062 -21.109375 0.53125 -21.109375 L 0.53125 -21.6875 L 11.875 -21.6875 C 13.925781 -21.6875 15.816406 -21.269531 17.546875 -20.4375 C 19.273438 -19.601562 20.65625 -18.359375 21.6875 -16.703125 C 22.71875 -15.054688 23.234375 -13.054688 23.234375 -10.703125 Z M 10.984375 -1.109375 C 15.398438 -1.109375 17.609375 -4.253906 17.609375 -10.546875 C 17.609375 -14.054688 16.972656 -16.601562 15.703125 -18.1875 C 14.429688 -19.78125 12.828125 -20.578125 10.890625 -20.578125 L 8.546875 -20.578125 L 8.546875 -3.21875 C 8.546875 -2.601562 8.613281 -2.148438 8.75 -1.859375 C 8.894531 -1.566406 9.132812 -1.367188 9.46875 -1.265625 C 9.800781 -1.160156 10.304688 -1.109375 10.984375 -1.109375 Z M 10.984375 -1.109375 "/></g></g></g><g fill="#ffffff" fill-opacity="1"><g transform="translate(125.619239, 140.303576)"><g><path d="M 6.375 -10.546875 C 5.832031 -10.535156 5.441406 -10.503906 5.203125 -10.453125 C 4.960938 -10.410156 4.78125 -10.296875 4.65625 -10.109375 C 4.539062 -9.921875 4.484375 -9.609375 4.484375 -9.171875 L 4.484375 -1.453125 C 4.484375 -1.148438 4.554688 -0.925781 4.703125 -0.78125 C 4.859375 -0.644531 5.101562 -0.578125 5.4375 -0.578125 L 6.59375 -0.578125 C 7.476562 -0.578125 8.175781 -0.828125 8.6875 -1.328125 C 9.207031 -1.835938 9.597656 -2.625 9.859375 -3.6875 L 10.140625 -3.6875 L 9.765625 0 L 0.25 0 L 0.25 -0.28125 C 0.71875 -0.289062 1.066406 -0.328125 1.296875 -0.390625 C 1.523438 -0.460938 1.691406 -0.59375 1.796875 -0.78125 C 1.898438 -0.976562 1.953125 -1.269531 1.953125 -1.65625 L 1.953125 -9.171875 C 1.953125 -9.609375 1.890625 -9.921875 1.765625 -10.109375 C 1.648438 -10.296875 1.484375 -10.410156 1.265625 -10.453125 C 1.054688 -10.503906 0.71875 -10.535156 0.25 -10.546875 L 0.25 -10.828125 L 6.375 -10.828125 Z M 6.375 -10.546875 "/></g></g></g><g fill="#ffffff" fill-opacity="1"><g transform="translate(143.341516, 140.303576)"><g><path d="M 5.578125 -10.546875 C 5.117188 -10.546875 4.78125 -10.457031 4.5625 -10.28125 C 4.351562 -10.101562 4.25 -9.769531 4.25 -9.28125 L 4.25 -2.859375 C 4.25 -2.191406 4.457031 -1.628906 4.875 -1.171875 C 5.300781 -0.710938 5.957031 -0.484375 6.84375 -0.484375 C 7.875 -0.484375 8.648438 -0.796875 9.171875 -1.421875 C 9.703125 -2.046875 9.96875 -2.828125 9.96875 -3.765625 L 9.96875 -9.171875 C 9.96875 -9.660156 9.859375 -10.007812 9.640625 -10.21875 C 9.429688 -10.4375 9.085938 -10.546875 8.609375 -10.546875 L 8.609375 -10.828125 L 11.9375 -10.828125 L 11.9375 -10.546875 C 11.445312 -10.535156 11.09375 -10.425781 10.875 -10.21875 C 10.65625 -10.019531 10.546875 -9.632812 10.546875 -9.0625 L 10.546875 -3.828125 C 10.546875 -2.515625 10.164062 -1.507812 9.40625 -0.8125 C 8.65625 -0.125 7.570312 0.21875 6.15625 0.21875 C 5.15625 0.21875 4.328125 0.0625 3.671875 -0.25 C 3.015625 -0.570312 2.523438 -1 2.203125 -1.53125 C 1.890625 -2.070312 1.734375 -2.679688 1.734375 -3.359375 L 1.734375 -9.34375 C 1.734375 -9.820312 1.617188 -10.140625 1.390625 -10.296875 C 1.160156 -10.453125 0.769531 -10.535156 0.21875 -10.546875 L 0.21875 -10.828125 L 5.578125 -10.828125 Z M 5.578125 -10.546875 "/></g></g></g><g fill="#ffffff" fill-opacity="1"><g transform="translate(162.701497, 140.303576)"><g><path d="M 5.453125 -10.546875 C 5.054688 -10.535156 4.78125 -10.503906 4.625 -10.453125 C 4.476562 -10.398438 4.40625 -10.273438 4.40625 -10.078125 C 4.40625 -9.867188 4.492188 -9.617188 4.671875 -9.328125 L 6.25 -6.84375 L 7.484375 -8.515625 C 7.878906 -9.054688 8.078125 -9.460938 8.078125 -9.734375 C 8.078125 -10.273438 7.691406 -10.546875 6.921875 -10.546875 L 6.921875 -10.828125 L 10.71875 -10.828125 L 10.71875 -10.546875 C 10.3125 -10.523438 9.96875 -10.421875 9.6875 -10.234375 C 9.414062 -10.046875 9.070312 -9.671875 8.65625 -9.109375 L 6.59375 -6.328125 L 9.515625 -1.6875 C 9.828125 -1.207031 10.101562 -0.859375 10.34375 -0.640625 C 10.59375 -0.421875 10.832031 -0.300781 11.0625 -0.28125 L 11.0625 0 L 6.015625 0 L 6.015625 -0.28125 C 6.398438 -0.28125 6.660156 -0.316406 6.796875 -0.390625 C 6.941406 -0.460938 7.015625 -0.59375 7.015625 -0.78125 C 7.015625 -0.914062 6.953125 -1.09375 6.828125 -1.3125 C 6.703125 -1.539062 6.457031 -1.9375 6.09375 -2.5 L 5.015625 -4.25 L 3.28125 -1.9375 C 3 -1.539062 2.859375 -1.21875 2.859375 -0.96875 C 2.859375 -0.507812 3.3125 -0.28125 4.21875 -0.28125 L 4.21875 0 L 0.25 0 L 0.25 -0.28125 C 0.695312 -0.28125 1.101562 -0.4375 1.46875 -0.75 C 1.832031 -1.0625 2.253906 -1.535156 2.734375 -2.171875 L 4.671875 -4.78125 L 1.90625 -9.09375 C 1.582031 -9.625 1.300781 -10 1.0625 -10.21875 C 0.832031 -10.4375 0.5625 -10.546875 0.25 -10.546875 L 0.25 -10.828125 L 5.453125 -10.828125 Z M 5.453125 -10.546875 "/></g></g></g><g fill="#ffffff" fill-opacity="1"><g transform="translate(181.242625, 140.303576)"><g><path d="M 5.578125 -10.546875 C 5.117188 -10.546875 4.78125 -10.457031 4.5625 -10.28125 C 4.351562 -10.101562 4.25 -9.769531 4.25 -9.28125 L 4.25 -2.859375 C 4.25 -2.191406 4.457031 -1.628906 4.875 -1.171875 C 5.300781 -0.710938 5.957031 -0.484375 6.84375 -0.484375 C 7.875 -0.484375 8.648438 -0.796875 9.171875 -1.421875 C 9.703125 -2.046875 9.96875 -2.828125 9.96875 -3.765625 L 9.96875 -9.171875 C 9.96875 -9.660156 9.859375 -10.007812 9.640625 -10.21875 C 9.429688 -10.4375 9.085938 -10.546875 8.609375 -10.546875 L 8.609375 -10.828125 L 11.9375 -10.828125 L 11.9375 -10.546875 C 11.445312 -10.535156 11.09375 -10.425781 10.875 -10.21875 C 10.65625 -10.019531 10.546875 -9.632812 10.546875 -9.0625 L 10.546875 -3.828125 C 10.546875 -2.515625 10.164062 -1.507812 9.40625 -0.8125 C 8.65625 -0.125 7.570312 0.21875 6.15625 0.21875 C 5.15625 0.21875 4.328125 0.0625 3.671875 -0.25 C 3.015625 -0.570312 2.523438 -1 2.203125 -1.53125 C 1.890625 -2.070312 1.734375 -2.679688 1.734375 -3.359375 L 1.734375 -9.34375 C 1.734375 -9.820312 1.617188 -10.140625 1.390625 -10.296875 C 1.160156 -10.453125 0.769531 -10.535156 0.21875 -10.546875 L 0.21875 -10.828125 L 5.578125 -10.828125 Z M 5.578125 -10.546875 "/></g></g></g><g fill="#ffffff" fill-opacity="1"><g transform="translate(200.602605, 140.303576)"><g><path d="M 9.796875 -7.828125 C 9.796875 -7.171875 9.582031 -6.601562 9.15625 -6.125 C 8.726562 -5.644531 8.148438 -5.316406 7.421875 -5.140625 L 9.546875 -1.65625 C 9.828125 -1.207031 10.082031 -0.867188 10.3125 -0.640625 C 10.550781 -0.410156 10.789062 -0.289062 11.03125 -0.28125 L 11.03125 0 L 7.828125 0 L 4.828125 -4.9375 L 4.328125 -4.9375 L 4.328125 -1.640625 C 4.328125 -1.234375 4.382812 -0.929688 4.5 -0.734375 C 4.613281 -0.546875 4.773438 -0.425781 4.984375 -0.375 C 5.191406 -0.320312 5.503906 -0.289062 5.921875 -0.28125 L 5.921875 0 L 0.296875 0 L 0.296875 -0.28125 C 0.703125 -0.289062 1.003906 -0.320312 1.203125 -0.375 C 1.410156 -0.4375 1.5625 -0.566406 1.65625 -0.765625 C 1.757812 -0.960938 1.8125 -1.253906 1.8125 -1.640625 L 1.8125 -9.328125 C 1.8125 -9.804688 1.691406 -10.128906 1.453125 -10.296875 C 1.222656 -10.460938 0.835938 -10.546875 0.296875 -10.546875 L 0.296875 -10.828125 L 5.859375 -10.828125 C 7.023438 -10.828125 7.972656 -10.5625 8.703125 -10.03125 C 9.429688 -9.507812 9.796875 -8.773438 9.796875 -7.828125 Z M 5.1875 -5.515625 C 5.707031 -5.515625 6.175781 -5.679688 6.59375 -6.015625 C 7.019531 -6.347656 7.234375 -6.972656 7.234375 -7.890625 C 7.234375 -9.460938 6.472656 -10.25 4.953125 -10.25 L 4.328125 -10.25 L 4.328125 -5.515625 Z M 5.1875 -5.515625 "/></g></g></g><g fill="#ffffff" fill-opacity="1"><g transform="translate(219.143738, 140.303576)"><g><path d="M 5.25 -10.546875 C 4.863281 -10.546875 4.59375 -10.507812 4.4375 -10.4375 C 4.289062 -10.363281 4.21875 -10.242188 4.21875 -10.078125 C 4.21875 -9.929688 4.289062 -9.71875 4.4375 -9.4375 L 6.796875 -5.03125 L 8.796875 -8.859375 C 9.015625 -9.285156 9.125 -9.617188 9.125 -9.859375 C 9.125 -10.117188 9.015625 -10.296875 8.796875 -10.390625 C 8.578125 -10.492188 8.28125 -10.546875 7.90625 -10.546875 L 7.90625 -10.828125 L 11.109375 -10.828125 L 11.109375 -10.546875 C 10.910156 -10.546875 10.734375 -10.503906 10.578125 -10.421875 C 10.429688 -10.347656 10.269531 -10.191406 10.09375 -9.953125 C 9.925781 -9.710938 9.710938 -9.359375 9.453125 -8.890625 L 7.140625 -4.46875 L 7.140625 -1.625 C 7.140625 -1.207031 7.1875 -0.90625 7.28125 -0.71875 C 7.375 -0.539062 7.523438 -0.425781 7.734375 -0.375 C 7.953125 -0.320312 8.3125 -0.289062 8.8125 -0.28125 L 8.8125 0 L 2.953125 0 L 2.953125 -0.28125 C 3.398438 -0.289062 3.738281 -0.332031 3.96875 -0.40625 C 4.195312 -0.476562 4.363281 -0.609375 4.46875 -0.796875 C 4.570312 -0.984375 4.625 -1.265625 4.625 -1.640625 L 4.625 -4.015625 L 1.859375 -9.109375 C 1.640625 -9.523438 1.457031 -9.828125 1.3125 -10.015625 C 1.175781 -10.203125 1.023438 -10.335938 0.859375 -10.421875 C 0.691406 -10.503906 0.476562 -10.546875 0.21875 -10.546875 L 0.21875 -10.828125 L 5.25 -10.828125 Z M 5.25 -10.546875 "/></g></g></g><g fill="#ffffff" fill-opacity="1"><g transform="translate(237.68487, 140.303576)"><g/></g></g><g fill="#ffffff" fill-opacity="1"><g transform="translate(248.840598, 140.303576)"><g><path d="M 5.640625 -10.546875 C 5.253906 -10.535156 4.957031 -10.488281 4.75 -10.40625 C 4.539062 -10.320312 4.394531 -10.1875 4.3125 -10 C 4.226562 -9.8125 4.1875 -9.539062 4.1875 -9.1875 L 4.1875 -6.046875 L 8.765625 -6.046875 L 8.765625 -9.171875 C 8.765625 -9.566406 8.71875 -9.859375 8.625 -10.046875 C 8.539062 -10.242188 8.398438 -10.375 8.203125 -10.4375 C 8.015625 -10.5 7.734375 -10.535156 7.359375 -10.546875 L 7.359375 -10.828125 L 12.8125 -10.828125 L 12.8125 -10.546875 C 12.382812 -10.535156 12.066406 -10.492188 11.859375 -10.421875 C 11.648438 -10.359375 11.5 -10.234375 11.40625 -10.046875 C 11.320312 -9.859375 11.28125 -9.570312 11.28125 -9.1875 L 11.28125 -1.65625 C 11.28125 -1.257812 11.332031 -0.960938 11.4375 -0.765625 C 11.539062 -0.566406 11.6875 -0.4375 11.875 -0.375 C 12.0625 -0.320312 12.332031 -0.289062 12.6875 -0.28125 L 12.6875 0 L 7.359375 0 L 7.359375 -0.28125 C 7.753906 -0.289062 8.046875 -0.328125 8.234375 -0.390625 C 8.429688 -0.453125 8.566406 -0.578125 8.640625 -0.765625 C 8.722656 -0.960938 8.765625 -1.25 8.765625 -1.625 L 8.765625 -5.375 L 4.1875 -5.375 L 4.1875 -1.640625 C 4.1875 -1.242188 4.238281 -0.945312 4.34375 -0.75 C 4.445312 -0.5625 4.59375 -0.4375 4.78125 -0.375 C 4.976562 -0.320312 5.265625 -0.289062 5.640625 -0.28125 L 5.640625 0 L 0.453125 0 L 0.453125 -0.28125 C 0.921875 -0.28125 1.238281 -0.382812 1.40625 -0.59375 C 1.582031 -0.800781 1.671875 -1.15625 1.671875 -1.65625 L 1.671875 -9.171875 C 1.671875 -9.566406 1.625 -9.859375 1.53125 -10.046875 C 1.445312 -10.234375 1.296875 -10.359375 1.078125 -10.421875 C 0.867188 -10.492188 0.5625 -10.535156 0.15625 -10.546875 L 0.15625 -10.828125 L 5.640625 -10.828125 Z M 5.640625 -10.546875 "/></g></g></g><g fill="#ffffff" fill-opacity="1"><g transform="translate(269.019433, 140.303576)"><g><path d="M 6.46875 -11.0625 C 7.53125 -11.0625 8.503906 -10.835938 9.390625 -10.390625 C 10.285156 -9.941406 10.992188 -9.285156 11.515625 -8.421875 C 12.046875 -7.554688 12.3125 -6.539062 12.3125 -5.375 C 12.3125 -4.332031 12.070312 -3.382812 11.59375 -2.53125 C 11.125 -1.6875 10.445312 -1.015625 9.5625 -0.515625 C 8.6875 -0.0234375 7.660156 0.21875 6.484375 0.21875 C 5.347656 0.21875 4.335938 -0.0195312 3.453125 -0.5 C 2.566406 -0.976562 1.875 -1.640625 1.375 -2.484375 C 0.882812 -3.335938 0.640625 -4.316406 0.640625 -5.421875 C 0.640625 -6.503906 0.890625 -7.472656 1.390625 -8.328125 C 1.890625 -9.179688 2.582031 -9.847656 3.46875 -10.328125 C 4.351562 -10.816406 5.351562 -11.0625 6.46875 -11.0625 Z M 3.453125 -5.453125 C 3.453125 -4.609375 3.550781 -3.796875 3.75 -3.015625 C 3.957031 -2.242188 4.285156 -1.601562 4.734375 -1.09375 C 5.179688 -0.582031 5.757812 -0.328125 6.46875 -0.328125 C 7.070312 -0.328125 7.601562 -0.53125 8.0625 -0.9375 C 8.519531 -1.34375 8.875 -1.921875 9.125 -2.671875 C 9.375 -3.421875 9.5 -4.300781 9.5 -5.3125 C 9.5 -6.40625 9.375 -7.34375 9.125 -8.125 C 8.882812 -8.90625 8.535156 -9.5 8.078125 -9.90625 C 7.617188 -10.3125 7.085938 -10.515625 6.484375 -10.515625 C 5.921875 -10.515625 5.410156 -10.328125 4.953125 -9.953125 C 4.492188 -9.578125 4.128906 -9.007812 3.859375 -8.25 C 3.585938 -7.488281 3.453125 -6.554688 3.453125 -5.453125 Z M 3.453125 -5.453125 "/></g></g></g><g fill="#ffffff" fill-opacity="1"><g transform="translate(289.198268, 140.303576)"><g><path d="M 10.078125 -8 L 9.796875 -8 C 9.722656 -8.738281 9.488281 -9.296875 9.09375 -9.671875 C 8.695312 -10.054688 8.242188 -10.25 7.734375 -10.25 L 6.515625 -10.25 L 6.515625 -1.703125 C 6.515625 -1.316406 6.566406 -1.019531 6.671875 -0.8125 C 6.773438 -0.613281 6.9375 -0.476562 7.15625 -0.40625 C 7.375 -0.332031 7.6875 -0.289062 8.09375 -0.28125 L 8.09375 0 L 2.40625 0 L 2.40625 -0.28125 C 2.8125 -0.28125 3.117188 -0.304688 3.328125 -0.359375 C 3.546875 -0.421875 3.707031 -0.550781 3.8125 -0.75 C 3.925781 -0.957031 3.984375 -1.265625 3.984375 -1.671875 L 3.984375 -10.25 L 2.640625 -10.25 C 2.160156 -10.25 1.734375 -10.039062 1.359375 -9.625 C 0.992188 -9.207031 0.773438 -8.664062 0.703125 -8 L 0.421875 -8 L 0.421875 -10.828125 L 10.078125 -10.828125 Z M 10.078125 -8 "/></g></g></g><g fill="#ffffff" fill-opacity="1"><g transform="translate(306.920549, 140.303576)"><g><path d="M 9.40625 -7.734375 L 9.125 -7.734375 C 8.976562 -8.554688 8.679688 -9.179688 8.234375 -9.609375 C 7.796875 -10.035156 7.222656 -10.25 6.515625 -10.25 L 4.390625 -10.25 L 4.390625 -5.8125 L 4.71875 -5.8125 C 5.113281 -5.8125 5.4375 -5.875 5.6875 -6 C 5.945312 -6.132812 6.164062 -6.378906 6.34375 -6.734375 C 6.53125 -7.097656 6.664062 -7.617188 6.75 -8.296875 L 7.03125 -8.296875 L 7.03125 -2.796875 L 6.75 -2.796875 C 6.632812 -3.742188 6.410156 -4.382812 6.078125 -4.71875 C 5.742188 -5.0625 5.3125 -5.234375 4.78125 -5.234375 L 4.390625 -5.234375 L 4.390625 -1.75 C 4.390625 -1.300781 4.457031 -0.992188 4.59375 -0.828125 C 4.726562 -0.660156 4.988281 -0.578125 5.375 -0.578125 L 6.515625 -0.578125 C 7.441406 -0.578125 8.164062 -0.828125 8.6875 -1.328125 C 9.207031 -1.828125 9.609375 -2.5 9.890625 -3.34375 L 10.171875 -3.34375 L 9.6875 0 L 0.28125 0 L 0.28125 -0.28125 L 0.640625 -0.28125 C 1.015625 -0.28125 1.285156 -0.332031 1.453125 -0.4375 C 1.628906 -0.550781 1.738281 -0.695312 1.78125 -0.875 C 1.832031 -1.0625 1.859375 -1.304688 1.859375 -1.609375 L 1.859375 -9.25 C 1.859375 -9.769531 1.738281 -10.113281 1.5 -10.28125 C 1.269531 -10.445312 0.863281 -10.535156 0.28125 -10.546875 L 0.28125 -10.828125 L 9.40625 -10.828125 Z M 9.40625 -7.734375 "/></g></g></g><g fill="#ffffff" fill-opacity="1"><g transform="translate(324.642831, 140.303576)"><g><path d="M 6.375 -10.546875 C 5.832031 -10.535156 5.441406 -10.503906 5.203125 -10.453125 C 4.960938 -10.410156 4.78125 -10.296875 4.65625 -10.109375 C 4.539062 -9.921875 4.484375 -9.609375 4.484375 -9.171875 L 4.484375 -1.453125 C 4.484375 -1.148438 4.554688 -0.925781 4.703125 -0.78125 C 4.859375 -0.644531 5.101562 -0.578125 5.4375 -0.578125 L 6.59375 -0.578125 C 7.476562 -0.578125 8.175781 -0.828125 8.6875 -1.328125 C 9.207031 -1.835938 9.597656 -2.625 9.859375 -3.6875 L 10.140625 -3.6875 L 9.765625 0 L 0.25 0 L 0.25 -0.28125 C 0.71875 -0.289062 1.066406 -0.328125 1.296875 -0.390625 C 1.523438 -0.460938 1.691406 -0.59375 1.796875 -0.78125 C 1.898438 -0.976562 1.953125 -1.269531 1.953125 -1.65625 L 1.953125 -9.171875 C 1.953125 -9.609375 1.890625 -9.921875 1.765625 -10.109375 C 1.648438 -10.296875 1.484375 -10.410156 1.265625 -10.453125 C 1.054688 -10.503906 0.71875 -10.535156 0.25 -10.546875 L 0.25 -10.828125 L 6.375 -10.828125 Z M 6.375 -10.546875 "/></g></g></g></svg>