<svg xmlns="http://www.w3.org/2000/svg" xmlns:xlink="http://www.w3.org/1999/xlink" width="64" zoomAndPan="magnify" viewBox="0 0 48 48" height="64" preserveAspectRatio="xMidYMid meet" version="1.0"><defs><clipPath id="695fdb552d"><path d="M 3 1 L 45 1 L 45 44 L 3 44 Z M 3 1 " clip-rule="nonzero"/></clipPath><clipPath id="263a25d356"><path d="M 24 0.925781 L 45.816406 22.746094 L 24 44.566406 L 2.179688 22.746094 Z M 24 0.925781 " clip-rule="nonzero"/></clipPath><clipPath id="d22cc57f34"><path d="M 24 0.925781 L 45.84375 22.769531 L 24 44.613281 L 2.15625 22.769531 Z M 24 0.925781 " clip-rule="nonzero"/></clipPath><clipPath id="dba0b756df"><path d="M 25.375 2.304688 L 44.304688 21.230469 C 44.667969 21.597656 44.875 22.089844 44.875 22.609375 C 44.875 23.125 44.667969 23.621094 44.304688 23.984375 L 25.375 42.914062 C 25.011719 43.277344 24.515625 43.484375 24 43.484375 C 23.480469 43.484375 22.988281 43.277344 22.621094 42.914062 L 3.695312 23.984375 C 3.328125 23.621094 3.125 23.125 3.125 22.609375 C 3.125 22.089844 3.328125 21.597656 3.695312 21.230469 L 22.621094 2.304688 C 22.988281 1.9375 23.480469 1.734375 24 1.734375 C 24.515625 1.734375 25.011719 1.9375 25.375 2.304688 Z M 25.375 2.304688 " clip-rule="nonzero"/></clipPath><clipPath id="db230d0a82"><path d="M 3 2 L 46 2 L 46 45 L 3 45 Z M 3 2 " clip-rule="nonzero"/></clipPath><clipPath id="6d2aa8fcfc"><path d="M 3.355469 23.074219 L 24.019531 2.410156 L 45.234375 23.625 L 24.574219 44.289062 Z M 3.355469 23.074219 " clip-rule="nonzero"/></clipPath><clipPath id="b25a6cbd10"><path d="M 8.117188 6.824219 L 39.710938 6.824219 L 39.710938 38.417969 L 8.117188 38.417969 Z M 8.117188 6.824219 " clip-rule="nonzero"/></clipPath></defs><g clip-path="url(#695fdb552d)"><g clip-path="url(#263a25d356)"><g clip-path="url(#d22cc57f34)"><g clip-path="url(#dba0b756df)"><path stroke-linecap="butt" transform="matrix(0.519507, 0.519507, -0.519507, 0.519507, 23.998555, 0.926513)" fill="none" stroke-linejoin="miter" d="M 2.651186 0.00166479 L 39.085217 -0.00209479 C 39.788258 0.00166479 40.461221 0.276114 40.961245 0.776137 C 41.457508 1.272401 41.735717 1.949124 41.735717 2.648405 L 41.735717 39.086195 C 41.735717 39.785476 41.457508 40.462199 40.961245 40.958463 C 40.461221 41.458486 39.788258 41.732935 39.085217 41.736695 L 2.651186 41.732935 C 1.948146 41.736695 1.275182 41.454727 0.778918 40.958463 C 0.278895 40.45844 0.000686651 39.789236 0.000686651 39.082436 L 0.000686651 2.652164 C 0.000686651 1.945365 0.278895 1.27616 0.778918 0.776137 C 1.275182 0.279873 1.948146 -0.00209479 2.651186 0.00166479 Z M 2.651186 0.00166479 " stroke="#000000" stroke-width="2" stroke-opacity="1" stroke-miterlimit="4"/></g></g></g></g><g clip-path="url(#db230d0a82)"><g clip-path="url(#6d2aa8fcfc)"><path fill="#000000" d="M 3.355469 23.074219 L 24.019531 2.410156 L 45.246094 23.636719 L 24.585938 44.300781 Z M 3.355469 23.074219 " fill-opacity="1" fill-rule="nonzero"/></g></g><path fill="#ffffff" d="M 24.195312 35.800781 C 24.800781 35.773438 25.394531 35.539062 25.867188 35.097656 C 25.40625 35.527344 24.808594 35.761719 24.195312 35.800781 " fill-opacity="1" fill-rule="evenodd"/><path fill="#ffffff" d="M 23.792969 9.417969 C 23.1875 9.449219 22.589844 9.683594 22.121094 10.121094 C 22.578125 9.695312 23.179688 9.460938 23.792969 9.417969 " fill-opacity="1" fill-rule="evenodd"/><g clip-path="url(#b25a6cbd10)"><path fill="#ffffff" d="M 34.648438 25.292969 C 33.972656 25.292969 33.292969 25.035156 32.777344 24.519531 L 30.867188 22.609375 L 32.777344 20.699219 C 33.292969 20.1875 33.972656 19.929688 34.648438 19.929688 C 35.160156 19.929688 35.671875 20.074219 36.109375 20.367188 L 36.523438 20.777344 C 37.027344 21.28125 37.28125 21.945312 37.292969 22.613281 C 37.28125 23.277344 37.027344 23.941406 36.523438 24.445312 L 36.113281 24.855469 C 35.671875 25.144531 35.160156 25.292969 34.648438 25.292969 Z M 39.867188 22.574219 C 39.867188 21.234375 39.359375 19.894531 38.34375 18.878906 C 38.164062 18.699219 37.976562 18.539062 37.777344 18.390625 L 29.972656 10.585938 C 29.824219 10.433594 29.566406 10.574219 29.613281 10.78125 C 29.707031 11.199219 29.753906 11.625 29.753906 12.058594 C 29.753906 12.492188 29.707031 12.917969 29.617188 13.332031 C 29.554688 13.609375 29.640625 13.894531 29.839844 14.09375 L 33.28125 17.535156 C 32.429688 17.765625 31.621094 18.210938 30.957031 18.878906 L 29.046875 20.789062 L 26.246094 17.988281 L 24.425781 19.8125 L 27.222656 22.609375 L 23.992188 25.84375 L 22.171875 27.664062 L 21.738281 28.09375 L 20.367188 29.46875 C 19.832031 30.003906 19.4375 30.632812 19.183594 31.300781 L 18.980469 31.960938 C 18.886719 32.355469 18.84375 32.757812 18.84375 33.160156 C 18.84375 34.5 19.351562 35.839844 20.367188 36.855469 C 21.367188 37.855469 22.679688 38.363281 23.992188 38.378906 L 23.996094 38.378906 C 25.308594 38.363281 26.621094 37.855469 27.621094 36.855469 C 28.636719 35.839844 29.144531 34.5 29.144531 33.160156 C 29.144531 32.757812 29.097656 32.355469 29.003906 31.960938 C 28.953125 31.738281 28.886719 31.515625 28.804688 31.300781 C 28.550781 30.632812 28.15625 30.003906 27.621094 29.46875 L 26.246094 28.09375 L 24.425781 29.917969 L 25.796875 31.289062 C 26.3125 31.804688 26.570312 32.484375 26.570312 33.160156 C 26.570312 33.296875 26.558594 33.433594 26.539062 33.566406 C 26.457031 34.105469 26.210938 34.621094 25.796875 35.035156 C 25.300781 35.53125 24.652344 35.785156 23.996094 35.804688 L 23.992188 35.804688 C 23.96875 35.804688 23.949219 35.804688 23.925781 35.804688 C 23.246094 35.804688 22.566406 35.546875 22.054688 35.035156 C 21.757812 34.566406 21.535156 34.082031 21.449219 33.566406 C 21.429688 33.433594 21.417969 33.296875 21.417969 33.160156 C 21.417969 32.484375 21.675781 31.804688 22.1875 31.289062 L 23.5625 29.917969 L 23.992188 29.484375 L 25.816406 27.664062 L 26.246094 27.230469 L 29.046875 24.433594 L 30.957031 26.34375 C 31.621094 27.007812 32.429688 27.457031 33.28125 27.6875 L 29.839844 31.128906 C 29.640625 31.328125 29.554688 31.613281 29.617188 31.886719 C 29.707031 32.304688 29.753906 32.730469 29.753906 33.160156 C 29.753906 33.59375 29.707031 34.023438 29.613281 34.441406 C 29.566406 34.648438 29.824219 34.789062 29.972656 34.636719 L 37.78125 26.832031 C 37.976562 26.683594 38.164062 26.519531 38.34375 26.34375 C 39.359375 25.324219 39.867188 23.984375 39.867188 22.648438 C 39.867188 22.636719 39.867188 22.625 39.867188 22.613281 C 39.867188 22.597656 39.867188 22.585938 39.867188 22.574219 Z M 11.875 24.855469 L 11.464844 24.445312 C 10.960938 23.941406 10.703125 23.277344 10.695312 22.609375 C 10.703125 21.945312 10.960938 21.28125 11.464844 20.777344 L 11.875 20.367188 C 12.316406 20.074219 12.824219 19.929688 13.335938 19.929688 C 14.015625 19.929688 14.695312 20.1875 15.207031 20.699219 L 17.117188 22.609375 L 15.207031 24.519531 C 14.695312 25.035156 14.015625 25.292969 13.335938 25.292969 C 12.824219 25.292969 12.316406 25.148438 11.875 24.855469 Z M 18.148438 31.128906 L 14.707031 27.6875 C 15.558594 27.457031 16.363281 27.007812 17.03125 26.34375 L 18.941406 24.433594 L 21.738281 27.230469 L 23.5625 25.410156 L 20.761719 22.609375 L 23.5625 19.8125 L 26.246094 17.125 L 27.617188 15.753906 C 28.15625 15.21875 28.550781 14.589844 28.804688 13.921875 L 29.003906 13.261719 C 29.097656 12.867188 29.144531 12.460938 29.144531 12.058594 C 29.144531 10.722656 28.636719 9.382812 27.617188 8.367188 C 26.621094 7.367188 25.308594 6.859375 23.992188 6.839844 C 22.675781 6.859375 21.367188 7.367188 20.367188 8.367188 C 19.351562 9.382812 18.84375 10.722656 18.84375 12.058594 C 18.84375 12.460938 18.886719 12.867188 18.980469 13.261719 C 19.03125 13.484375 19.101562 13.703125 19.183594 13.921875 C 19.4375 14.589844 19.832031 15.21875 20.367188 15.753906 L 21.738281 17.125 L 23.5625 15.304688 L 22.1875 13.933594 C 21.675781 13.417969 21.417969 12.738281 21.417969 12.058594 C 21.417969 11.925781 21.429688 11.789062 21.449219 11.65625 C 21.53125 11.117188 21.777344 10.597656 22.1875 10.1875 C 22.683594 9.691406 23.335938 9.433594 23.992188 9.417969 C 24.015625 9.417969 24.039062 9.417969 24.0625 9.417969 C 24.738281 9.417969 25.417969 9.671875 25.933594 10.1875 C 26.230469 10.65625 26.449219 11.140625 26.539062 11.65625 C 26.558594 11.789062 26.570312 11.925781 26.570312 12.058594 C 26.570312 12.738281 26.3125 13.417969 25.796875 13.933594 L 24.425781 15.304688 L 23.992188 15.734375 L 22.171875 17.558594 L 21.738281 17.988281 L 18.941406 20.789062 L 17.03125 18.878906 C 16.363281 18.210938 15.558594 17.765625 14.707031 17.535156 L 18.148438 14.09375 C 18.347656 13.894531 18.433594 13.609375 18.371094 13.332031 C 18.277344 12.917969 18.230469 12.492188 18.230469 12.058594 C 18.230469 11.625 18.277344 11.199219 18.371094 10.78125 C 18.417969 10.574219 18.164062 10.433594 18.011719 10.585938 L 10.207031 18.390625 C 10.007812 18.539062 9.820312 18.699219 9.640625 18.878906 C 8.625 19.894531 8.117188 21.234375 8.117188 22.574219 C 8.117188 22.585938 8.117188 22.597656 8.117188 22.609375 C 8.117188 22.621094 8.117188 22.636719 8.117188 22.648438 C 8.117188 23.984375 8.625 25.324219 9.640625 26.34375 C 9.820312 26.523438 10.011719 26.683594 10.207031 26.832031 L 18.011719 34.636719 C 18.164062 34.789062 18.417969 34.648438 18.371094 34.441406 C 18.28125 34.023438 18.230469 33.59375 18.230469 33.160156 C 18.230469 32.730469 18.277344 32.304688 18.371094 31.886719 C 18.433594 31.613281 18.347656 31.328125 18.148438 31.128906 " fill-opacity="1" fill-rule="evenodd"/></g></svg>